/* XPM */
static const char *down_frame_2[] = {
/* columns rows colors chars-per-pixel */
"32 32 5 1 ",
"  c #141B1B",
". c #E46D3A",
"X c #E0394C",
"o c #F2EAF1",
"O c None",
/* pixels */
"OOOOOOOOOO    OOOO    OOOOOOOOOO",
"OOOOOOOOOO    OOOO    OOOOOOOOOO",
"OOOOOOOO  XX  OO  XXXX  OOOOOOOO",
"OOOOOOOO  XX  OO  XXXX  OOOOOOOO",
"OOOOOO  XXXX    XXXX..XX  OOOOOO",
"OOOOOO  XXXX    XXXX..XX  OOOOOO",
"OOOO  XXXX....XX........XX  OOOO",
"OOOO  XXXX....XX........XX  OOOO",
"OO  XXXXXXXXXXXXXXXXXXXXXXXX  OO",
"OO  XXXXXXXXXXXXXXXXXXXXXXXX  OO",
"OO  XXXX                XXXXXX  ",
"OO  XXXX                XXXXXX  ",
"  XXXX  oooooooooooooooo  XXXX  ",
"  XXXX  oooooooooooooooo  XXXX  ",
"  XX  ..oooooooooooooooo..  XX  ",
"  XX  ..oooooooooooooooo..  XX  ",
"  XX  ..oo    ....    oo..  XX  ",
"  XX  ..oo    ....    oo..  XX  ",
"  XX  ..oo    ....    oo..  XX  ",
"  XX  ..oo    ....    oo..  XX  ",
"  XX  ..XXooooooooooooXX..  XX  ",
"  XX  ..XXooooooooooooXX..  XX  ",
"  XXXX  XX..oo  oo  ..XX  XXXX  ",
"  XXXX  XX..oo  oo  ..XX  XXXX  ",
"OO  XXXX  ....  ..  ..  XXXX  OO",
"OO  XXXX  ....  ..  ..  XXXX  OO",
"OOOO  XXXX            XXXX  OOOO",
"OOOO  XXXX            XXXX  OOOO",
"OOOOOO    XXXXXXXXXXXX    OOOOOO",
"OOOOOO    XXXXXXXXXXXX    OOOOOO",
"OOOOOOOOOO            OOOOOOOOOO",
"OOOOOOOOOO            OOOOOOOOOO"
};
