/* XPM */
static const char *d_frame_1[] = {
/* columns rows colors chars-per-pixel */
"32 32 7 1 ",
"  c #141B1B",
". c #2D697B",
"X c #548789",
"o c #79B8CE",
"O c #9BA7AA",
"+ c #E3F1F5",
"@ c None",
/* pixels */
"@@@@@@@@@@@@@@@@@@@@@@@@@@@@@@@@",
"@@@@@@@@@@@@@@@@@@@@@@@@@@@@@@@@",
"@@@@@@                    @@@@@@",
"@@@@@@                    @@@@@@",
"@@@@  XXXXXXoooooooooooooo    @@",
"@@@@  XXXXXXoooooooooooooo    @@",
"@@  XXXXXXoooooooooooooooo++++  ",
"@@  XXXXXXoooooooooooooooo++++  ",
"  ..XXXXXXoooooooooooooo++++++  ",
"  ..XXXXXXoooooooooooooo++++++  ",
"  ..XXXXXXXXoooooooooo++++++    ",
"  ..XXXXXXXXoooooooooo++++++    ",
"  ..XXXXXXXXXXoooooooo++++XXXX  ",
"  ..XXXXXXXXXXoooooooo++++XXXX  ",
"  ..XXXXXXXXXXXXXXXXXX++++  ++  ",
"  ..XXXXXXXXXXXXXXXXXX++++  ++  ",
"  ....XXXXXXXXXXXXXXXX++++      ",
"  ....XXXXXXXXXXXXXXXX++++      ",
"  ....XXXXXXXXXXXXXXXX++++oooo  ",
"  ....XXXXXXXXXXXXXXXX++++oooo  ",
"@@  ......XXXXXXXXXXXX++++++++  ",
"@@  ......XXXXXXXXXXXX++++++++  ",
"@@@@  ..................++++  @@",
"@@@@  ..................++++  @@",
"@@@@  ................++    @@@@",
"@@@@  ................++    @@@@",
"@@@@@@  ++  OOOO  ++++++  @@@@@@",
"@@@@@@  ++  OOOO  ++++++  @@@@@@",
"@@@@@@  XX  ++++  XXXX  @@@@@@@@",
"@@@@@@  XX  ++++  XXXX  @@@@@@@@",
"@@@@@@@@  ..    ......  @@@@@@@@",
"@@@@@@@@  ..    ......  @@@@@@@@"
};
