/* XPM */
static const char *w_frame_1[] = {
/* columns rows colors chars-per-pixel */
"32 32 7 1 ",
"  c #141B1B",
". c #2D697B",
"X c #548789",
"o c #79B8CE",
"O c #9BA7AA",
"+ c #E3F1F5",
"@ c None",
/* pixels */
"@@@@@@@@@@@@@@@@@@@@@@@@@@@@@@@@",
"@@@@@@@@@@@@@@@@@@@@@@@@@@@@@@@@",
"@@@@@@                    @@@@@@",
"@@@@@@                    @@@@@@",
"@@@@  XXooooooooooooooooXX  @@@@",
"@@@@  XXooooooooooooooooXX  @@@@",
"@@  XXooooooooooooooooooooXX  @@",
"@@  XXooooooooooooooooooooXX  @@",
"  ..oooooooooooooooooooooooo..  ",
"  ..oooooooooooooooooooooooo..  ",
"  ..XXooooooooooooooooooooXX..  ",
"  ..XXooooooooooooooooooooXX..  ",
"  ....XXooooooooooooooooXX....  ",
"  ....XXooooooooooooooooXX....  ",
"  ......XXXXXXXXXXXXXXXX......  ",
"  ......XXXXXXXXXXXXXXXX......  ",
"  ............................  ",
"  ............................  ",
"  ............................  ",
"  ............................  ",
"@@  ........................  @@",
"@@  ........................  @@",
"@@@@    ................    @@@@",
"@@@@    ................    @@@@",
"@@  ......XXXXXXXXXXXX......  @@",
"@@  ......XXXXXXXXXXXX......  @@",
"@@  OOOO++++++++++++++++OOOO  @@",
"@@  OOOO++++++++++++++++OOOO  @@",
"@@  OOOOXXXXXX....XXXX..OOOO  @@",
"@@  OOOOXXXXXX....XXXX..OOOO  @@",
"@@@@    ......    ......    @@@@",
"@@@@    ......    ......    @@@@"
};
