/* XPM */
static const char *digit_9[] = {
/* columns rows colors chars-per-pixel */
"16 32 4 1 ",
"  c #071821",
". c #86C06C",
"X c #E0F8CF",
"o c None",
/* pixels */
"              oo",
"              oo",
"  XXXXXXXXXX    ",
"  XXXXXXXXXX    ",
"  XXXXXXXXXX    ",
"  XXXXXXXXXX    ",
"  XXXX  XXXX    ",
"  XXXX  XXXX    ",
"  XXXX  XXXX    ",
"  XXXX  XXXX    ",
"  XXXX  XXXX    ",
"  XXXX  XXXX    ",
"  XXXXXXXXXX    ",
"  XXXXXXXXXX    ",
"  ..........    ",
"  ..........    ",
"        ....    ",
"        ....    ",
"oo      ....    ",
"oo      ....    ",
"        ....    ",
"        ....    ",
"  ..........    ",
"  ..........    ",
"  ..........    ",
"  ..........    ",
"                ",
"                ",
"oo              ",
"oo              ",
"oooooooooooooooo",
"oooooooooooooooo"
};
