/* XPM */
static const char *digit_1[] = {
/* columns rows colors chars-per-pixel */
"16 32 4 1 ",
"  c #071821",
". c #86C06C",
"X c #E0F8CF",
"o c None",
/* pixels */
"oo          oooo",
"oo          oooo",
"oo  XXXXXX    oo",
"oo  XXXXXX    oo",
"oo  XXXXXX    oo",
"oo  XXXXXX    oo",
"oo    XXXX    oo",
"oo    XXXX    oo",
"oooo  XXXX    oo",
"oooo  XXXX    oo",
"oooo  XXXX    oo",
"oooo  XXXX    oo",
"oooo  XXXX    oo",
"oooo  XXXX    oo",
"oooo  ....    oo",
"oooo  ....    oo",
"oooo  ....    oo",
"oooo  ....    oo",
"oooo  ....    oo",
"oooo  ....    oo",
"oooo  ....    oo",
"oooo  ....    oo",
"oooo  ....    oo",
"oooo  ....    oo",
"oooo  ....    oo",
"oooo  ....    oo",
"oooo          oo",
"oooo          oo",
"oooooo        oo",
"oooooo        oo",
"oooooooooooooooo",
"oooooooooooooooo"
};
