/* XPM */
static const char *digit_3[] = {
/* columns rows colors chars-per-pixel */
"16 32 4 1 ",
"  c #071821",
". c #86C06C",
"X c #E0F8CF",
"o c None",
/* pixels */
"              oo",
"              oo",
"  XXXXXXXXXX    ",
"  XXXXXXXXXX    ",
"  XXXXXXXXXX    ",
"  XXXXXXXXXX    ",
"        XXXX    ",
"        XXXX    ",
"oo      XXXX    ",
"oo      XXXX    ",
"oo      XXXX    ",
"oo      XXXX    ",
"oo  XXXXXXXX    ",
"oo  XXXXXXXX    ",
"oo  ........    ",
"oo  ........    ",
"oo      ....    ",
"oo      ....    ",
"oooo    ....    ",
"oooo    ....    ",
"        ....    ",
"        ....    ",
"  ..........    ",
"  ..........    ",
"  ..........    ",
"  ..........    ",
"                ",
"                ",
"oo              ",
"oo              ",
"oooooooooooooooo",
"oooooooooooooooo"
};
