/* XPM */
static const char *digit_4[] = {
/* columns rows colors chars-per-pixel */
"16 32 4 1 ",
"  c #071821",
". c #86C06C",
"X c #E0F8CF",
"o c None",
/* pixels */
"              oo",
"              oo",
"  XXXX  XXXX    ",
"  XXXX  XXXX    ",
"  XXXX  XXXX    ",
"  XXXX  XXXX    ",
"  XXXX  XXXX    ",
"  XXXX  XXXX    ",
"  XXXX  XXXX    ",
"  XXXX  XXXX    ",
"  XXXX  XXXX    ",
"  XXXX  XXXX    ",
"  XXXXXXXXXX    ",
"  XXXXXXXXXX    ",
"  ..........    ",
"  ..........    ",
"        ....    ",
"        ....    ",
"oo      ....    ",
"oo      ....    ",
"oooooo  ....    ",
"oooooo  ....    ",
"oooooo  ....    ",
"oooooo  ....    ",
"oooooo  ....    ",
"oooooo  ....    ",
"oooooo          ",
"oooooo          ",
"oooooooo        ",
"oooooooo        ",
"oooooooooooooooo",
"oooooooooooooooo"
};
