/* XPM */
static const char *digit_6[] = {
/* columns rows colors chars-per-pixel */
"16 32 4 1 ",
"  c #071821",
". c #86C06C",
"X c #E0F8CF",
"o c None",
/* pixels */
"              oo",
"              oo",
"  XXXXXXXXXX    ",
"  XXXXXXXXXX    ",
"  XXXXXXXXXX    ",
"  XXXXXXXXXX    ",
"  XXXX          ",
"  XXXX          ",
"  XXXX          ",
"  XXXX          ",
"  XXXX        oo",
"  XXXX        oo",
"  XXXXXXXXXX    ",
"  XXXXXXXXXX    ",
"  ..........    ",
"  ..........    ",
"  ....  ....    ",
"  ....  ....    ",
"  ....  ....    ",
"  ....  ....    ",
"  ....  ....    ",
"  ....  ....    ",
"  ..........    ",
"  ..........    ",
"  ..........    ",
"  ..........    ",
"                ",
"                ",
"oo              ",
"oo              ",
"oooooooooooooooo",
"oooooooooooooooo"
};
