/* XPM */
static const char *exit[] = {
/* columns rows colors chars-per-pixel */
"32 32 9 1 ",
"  c #141B1B",
". c #8F3E56",
"X c #965340",
"o c #A3754E",
"O c #D3865F",
"+ c #FFAD5D",
"@ c #F1C471",
"# c white",
"$ c None",
/* pixels */
"$$      $$$$$$$$$$$$$$$$      $$",
"$$      $$$$$$$$$$$$$$$$      $$",
"$$  oo                    oo  $$",
"$$  oo                    oo  $$",
"  ..oo..OOOOOOOOOOOOOOOO..oo..  ",
"  ..oo..OOOOOOOOOOOOOOOO..oo..  ",
"  ......OOOOOOOOOOOOOOOO......  ",
"  ......OOOOOOOOOOOOOOOO......  ",
"$$  ..  XXXXXXXX    XXXX  ..  $$",
"$$  ..  XXXXXXXX    XXXX  ..  $$",
"$$      OOOOOO  @@  OOOO      $$",
"$$      OOOOOO  @@  OOOO      $$",
"$$$$$$  ++OO  @@@@  OO++  $$$$$$",
"$$$$$$  ++OO  @@@@  OO++  $$$$$$",
"$$$$$$  ++  @@##      ++  $$$$$$",
"$$$$$$  ++  @@##      ++  $$$$$$",
"$$$$$$  ++  ########  ++  $$$$$$",
"$$$$$$  ++  ########  ++  $$$$$$",
"$$$$$$  ++      ####  ++  $$$$$$",
"$$$$$$  ++      ####  ++  $$$$$$",
"$$      ++++++  @@  ++++      $$",
"$$      ++++++  @@  ++++      $$",
"$$  oo  ++++++  @@  ++++  oo  $$",
"$$  oo  ++++++  @@  ++++  oo  $$",
"  ..oo..OOOO++    ++OOOO..oo..  ",
"  ..oo..OOOO++    ++OOOO..oo..  ",
"  ....  OOOOOOOOOOOOOOOO  ....  ",
"  ....  OOOOOOOOOOOOOOOO  ....  ",
"$$  ..                    ..  $$",
"$$  ..                    ..  $$",
"$$      $$$$$$$$$$$$$$$$      $$",
"$$      $$$$$$$$$$$$$$$$      $$"
};
