/* XPM */
static const char *food[] = {
/* columns rows colors chars-per-pixel */
"32 32 8 1 ",
"  c #141B1B",
". c #4E484A",
"X c #8D977F",
"o c #D2B37D",
"O c #F1C471",
"+ c #FFE18D",
"@ c white",
"# c None",
/* pixels */
"################################",
"################################",
"################################",
"################################",
"################################",
"################################",
"##############          ########",
"##############          ########",
"##########    ++++++++++  ######",
"##########    ++++++++++  ######",
"########  ......++++++++++  ####",
"########  ......++++++++++  ####",
"######  ++++......OOOOOOOO  ####",
"######  ++++......OOOOOOOO  ####",
"####  ++++++++......XXXXoo  ####",
"####  ++++++++......XXXXoo  ####",
"####  ++++++++OO..  oo@@  ######",
"####  ++++++++OO..  oo@@  ######",
"##  ++++++++OOOO    @@  ########",
"##  ++++++++OOOO    @@  ########",
"##  ++++++OOOOoo      ##########",
"##  ++++++OOOOoo      ##########",
"####  ++OOOOoo@@    ############",
"####  ++OOOOoo@@    ############",
"######  oooo@@    ##############",
"######  oooo@@    ##############",
"########      ##################",
"########      ##################",
"################################",
"################################",
"################################",
"################################"
};
