/* XPM */
static const char *wall[] = {
/* columns rows colors chars-per-pixel */
"32 32 6 1 ",
"  c #353540",
". c #557D55",
"X c #918D8D",
"o c #BFB8B4",
"O c #EDE4DA",
"+ c None",
/* pixels */
"++++++++++++++++++++++++++++++++",
"++++++++++++++++++++++++++++++++",
"++++++++++++++++++++++++++++++++",
"++++++++++++++++++++++++++++++++",
"++++++++                ++++++++",
"++++++++                ++++++++",
"++++++    ooooooooOOOO    ++++++",
"++++++    ooooooooOOOO    ++++++",
"++++++  ooooooooooooOOOO  ++++++",
"++++++  ooooooooooooOOOO  ++++++",
"++++++  oooooooooooooooo  ++++++",
"++++++  oooooooooooooooo  ++++++",
"++++..  oooooooooooooooo  ..++++",
"++++..  oooooooooooooooo  ..++++",
"++++..  oooooooooooooooo  ..++++",
"++++..  oooooooooooooooo  ..++++",
"++++..  XXooooooooooooXX  ..++++",
"++++..  XXooooooooooooXX  ..++++",
"++++..  XXXXXXXXXXXXXXXX  ..++++",
"++++..  XXXXXXXXXXXXXXXX  ..++++",
"++++..  XXXXXXXXXXXXXXXX  ..++++",
"++++..  XXXXXXXXXXXXXXXX  ..++++",
"++++..    XXXXXXXXXXXX    ..++++",
"++++..    XXXXXXXXXXXX    ..++++",
"++++....                ....++++",
"++++....                ....++++",
"++++++....................++++++",
"++++++....................++++++",
"++++++++++++++++++++++++++++++++",
"++++++++++++++++++++++++++++++++",
"++++++++++++++++++++++++++++++++",
"++++++++++++++++++++++++++++++++"
};
